<?xml version="1.0" encoding="UTF-8"?>
<svg width="18px" height="18px" viewBox="0 0 18 18" version="1.1" xmlns="http://www.w3.org/2000/svg" xmlns:xlink="http://www.w3.org/1999/xlink">
    <!-- Generator: sketchtool 50.2 (55047) - http://www.bohemiancoding.com/sketch -->
    <title>549816FC-C0AF-4A70-90D2-4E44AEAD0D3A</title>
    <desc>Created with sketchtool.</desc>
    <defs>
        <path d="M18,19 L6,19 C5.45,19 5,18.55 5,18 L5,6 C5,5.45 5.45,5 6,5 L18,5 C18.55,5 19,5.45 19,6 L19,18 C19,18.55 18.55,19 18,19 Z M19,3 L5,3 C3.9,3 3,3.9 3,5 L3,19 C3,20.1 3.9,21 5,21 L19,21 C20.1,21 21,20.1 21,19 L21,5 C21,3.9 20.1,3 19,3 Z" id="path-1"></path>
    </defs>
    <g id="StyleGuide---Erneste" stroke="none" stroke-width="1" fill="none" fill-rule="evenodd">
        <g id="StyleGuide---Erneste-3" transform="translate(-163.000000, -325.000000)">
            <g id="icon/check_box_outline_blank" transform="translate(160.000000, 322.000000)">
                <mask id="mask-2" fill="white">
                    <use xlink:href="#path-1"></use>
                </mask>
                <g id="icon/toggle/check_box_outline_blank_24px" fill-rule="nonzero"></g>
                <g id="Colors/TagA" mask="url(#mask-2)" fill="#A8B0D0" fill-rule="evenodd">
                    <rect id="Rectangle" x="0" y="0" width="24" height="24"></rect>
                </g>
            </g>
        </g>
    </g>
</svg>