<?xml version="1.0" encoding="UTF-8"?>
<svg width="181px" height="64px" viewBox="0 0 181 64" version="1.1" xmlns="http://www.w3.org/2000/svg" xmlns:xlink="http://www.w3.org/1999/xlink">
    <!-- Generator: Sketch 50.2 (55047) - http://www.bohemiancoding.com/sketch -->
    <title>Logo/erneste-talent</title>
    <desc>Created with Sketch.</desc>
    <defs></defs>
    <g id="Logo/erneste-talent" stroke="none" stroke-width="1" fill="none" fill-rule="evenodd">
        <circle id="Oval" fill="#FF6666" style="mix-blend-mode: darken;" cx="172" cy="45" r="9"></circle>
        <g id="Group" transform="translate(1.000000, 14.000000)" fill="#333366">
            <path d="M13.133,11.066 C17.132,11.066 20.103,12.486 21.965,15.288 C23.275,17.243 24.014,19.789 24.164,22.857 L2.13,22.857 C2.261,19.789 2.991,17.243 4.301,15.288 C6.162,12.486 9.133,11.066 13.133,11.066 M13.133,9 C8.011,9 4.308,10.943 2.126,14.775 C0.716,17.244 0,20.311 0,23.89 C0,28.743 1.125,32.477 3.341,34.988 C5.563,37.524 8.858,38.81 13.133,38.81 C16.229,38.81 18.883,38.124 21.021,36.77 C22.145,36.08 22.966,35.347 23.461,34.595 C23.883,33.972 24.098,33.278 24.098,32.533 L24.098,30.24 L22.002,30.24 L22.002,32.533 C22.002,32.857 21.911,33.159 21.731,33.429 C21.352,33.978 20.695,34.538 19.779,35.091 C17.951,36.168 15.716,36.714 13.133,36.714 C6.117,36.714 2.406,32.757 2.101,24.953 L26.266,24.953 L26.266,23.89 C26.266,20.311 25.55,17.244 24.14,14.775 C21.958,10.943 18.255,9 13.133,9" id="Fill-1"></path>
            <path d="M34.611,14.599 L34.611,14.168 C34.611,13.166 34.305,12.301 33.702,11.597 C33.112,10.907 32.381,10.557 31.527,10.557 L29,10.557 L29,12.623 L31.527,12.623 C31.779,12.623 32.005,12.769 32.213,13.064 C32.414,13.375 32.515,13.746 32.515,14.168 L32.515,39.371 L34.611,39.371 L34.611,22.87 C34.611,20.266 35.118,18.04 36.119,16.25 C37.651,13.474 40.256,12.067 43.861,12.067 L44.367,12.067 L44.367,10 L43.861,10 C39.652,10 36.542,11.547 34.611,14.599" id="Fill-4"></path>
            <path d="M61.861,9 C57.652,9 54.542,10.556 52.611,13.625 L52.611,13.197 C52.611,12.195 52.305,11.33 51.703,10.627 C51.114,9.917 50.382,9.557 49.527,9.557 L47,9.557 L47,11.652 L49.527,11.652 C49.777,11.652 49.991,11.796 50.187,12.097 C50.404,12.407 50.515,12.777 50.515,13.197 L50.515,34.789 C50.515,35.19 50.405,35.551 50.184,35.864 C49.992,36.161 49.777,36.305 49.527,36.305 L47,36.305 L47,38.4 L49.527,38.4 C50.382,38.4 51.114,38.04 51.702,37.332 C52.305,36.627 52.611,35.772 52.611,34.789 L52.611,21.898 C52.611,19.295 53.109,17.058 54.089,15.251 C55.64,12.494 58.255,11.096 61.861,11.096 C65.486,11.096 68.101,12.494 69.632,15.25 C70.633,17.06 71.14,19.296 71.14,21.898 L71.14,38.4 L73.207,38.4 L73.207,21.898 C73.207,18.805 72.59,16.152 71.374,14.015 C69.503,10.687 66.302,9 61.861,9" id="Fill-6"></path>
            <path d="M90.133,11.066 C94.132,11.066 97.103,12.486 98.965,15.288 C100.275,17.243 101.014,19.789 101.164,22.857 L79.13,22.857 C79.261,19.789 79.991,17.243 81.301,15.288 C83.162,12.486 86.133,11.066 90.133,11.066 M90.133,9 C85.011,9 81.308,10.943 79.126,14.775 C77.716,17.244 77,20.311 77,23.89 C77,28.743 78.125,32.477 80.341,34.988 C82.563,37.524 85.858,38.81 90.133,38.81 C93.229,38.81 95.883,38.124 98.021,36.77 C99.145,36.08 99.966,35.347 100.461,34.595 C100.883,33.972 101.098,33.278 101.098,32.533 L101.098,30.24 L99.002,30.24 L99.002,32.533 C99.002,32.857 98.911,33.159 98.731,33.429 C98.352,33.978 97.695,34.538 96.779,35.091 C94.951,36.168 92.716,36.714 90.133,36.714 C83.117,36.714 79.406,32.757 79.101,24.953 L103.266,24.953 L103.266,23.89 C103.266,20.311 102.55,17.244 101.14,14.775 C98.958,10.943 95.255,9 90.133,9" id="Fill-8"></path>
            <path d="M122.516,26.546 C121.163,25.586 118.856,24.555 115.658,23.483 C112.718,22.497 110.701,21.558 109.661,20.691 C108.622,19.86 108.096,18.74 108.096,17.361 C108.096,15.351 108.97,13.891 110.695,13.019 C111.882,12.406 113.44,12.095 115.325,12.095 C117.509,12.095 119.433,12.814 121.037,14.227 C121.072,14.262 121.088,14.299 121.088,14.343 L121.088,16.871 L123.184,16.871 L123.184,14.343 C123.184,13.685 122.934,13.122 122.44,12.669 C120.472,10.898 118.079,10 115.325,10 C112.398,10 110.095,10.65 108.481,11.93 C106.835,13.199 106,15.026 106,17.361 C106,19.383 106.775,21.043 108.301,22.291 C109.555,23.331 111.806,24.393 114.992,25.448 C117.933,26.435 120.032,27.366 121.229,28.214 C122.613,29.201 123.315,30.419 123.315,31.834 C123.315,34.096 122.362,35.734 120.482,36.703 C119.139,37.394 117.404,37.744 115.325,37.744 C112.498,37.744 110.181,36.917 108.427,35.278 C108.38,35.243 108.36,35.203 108.36,35.144 L108.36,32.588 L106.264,32.588 L106.264,35.144 C106.264,35.803 106.504,36.365 106.977,36.817 C109.101,38.822 111.909,39.839 115.325,39.839 C118.501,39.839 121.001,39.141 122.756,37.761 C124.517,36.356 125.41,34.361 125.41,31.834 C125.41,29.712 124.436,27.933 122.516,26.546" id="Fill-10"></path>
            <path d="M130.096,0 L128,0 L128,30.008 C128,32.975 128.71,35.28 130.112,36.858 C131.517,38.441 133.559,39.244 136.182,39.244 L136.688,39.244 L136.688,37.148 L136.182,37.148 C132.087,37.148 130.096,34.813 130.096,30.008 L130.096,12.057 L137.274,12.057 L137.274,9.961 L130.096,9.961 L130.096,0 Z" id="Fill-12"></path>
            <path d="M153.133,11.066 C157.132,11.066 160.104,12.486 161.965,15.288 C163.275,17.243 164.015,19.789 164.164,22.857 L142.13,22.857 C142.261,19.789 142.991,17.243 144.302,15.288 C146.162,12.486 149.134,11.066 153.133,11.066 Z M166.266,23.89 C166.266,20.311 165.551,17.244 164.14,14.775 C161.958,10.943 158.255,9 153.133,9 C148.011,9 144.308,10.943 142.126,14.775 C140.715,17.244 140,20.311 140,23.89 C140,28.743 141.124,32.477 143.342,34.988 C145.564,37.524 148.858,38.81 153.133,38.81 C156.229,38.81 158.883,38.124 161.021,36.77 C162.145,36.08 162.966,35.347 163.461,34.595 C163.884,33.972 164.098,33.278 164.098,32.533 L164.098,30.24 L162.002,30.24 L162.002,32.533 C162.002,32.858 161.91,33.16 161.732,33.429 C161.353,33.978 160.695,34.537 159.779,35.091 C157.952,36.168 155.716,36.714 153.133,36.714 C146.117,36.714 142.406,32.757 142.101,24.953 L166.266,24.953 L166.266,23.89 Z" id="Fill-15"></path>
        </g>
    </g>
</svg>